<svg id="Layer_1" data-name="Layer 1" xmlns="http://www.w3.org/2000/svg" viewBox="0 0 1008 792"><defs><style>.cls-1{fill:#fff;}.cls-2{fill:#5f5f5f;}.cls-3{fill:#fefefe;}.cls-4{fill:#0d0d0e;}.cls-5{fill:#575865;}.cls-6{fill:#70738a;}.cls-7{fill:#fdfdfd;}.cls-8{fill:#565764;}.cls-9{fill:#4f5371;}.cls-10{fill:#6f7289;}.cls-11{fill:#4f5372;}.cls-12{fill:#707389;}.cls-13{fill:#474851;}.cls-14{fill:#f9f9f9;}.cls-15{fill:#484952;}.cls-16{fill:#0f0f10;}.cls-17{fill:#f8f8f8;}.cls-18{fill:#4e5270;}.cls-19{fill:#71530b;}.cls-20{fill:#010101;}.cls-21{fill:#0e0c0d;}.cls-22{fill:#6c5151;}.cls-23{fill:#eee;}</style></defs><path class="cls-1" d="M252,648q0-250.92.09-501.82a3,3,0,0,1,2-2.11q249.93-.13,499.87,0a2.84,2.84,0,0,1,1.94,2q.14,249.93,0,499.88c0,.7-1.1,2-1.69,2Q503.13,648.06,252,648ZM504.29,154.94c-131.77-.2-237.22,104.69-241.08,233C259,527.62,368.72,633.48,496,637.29c140.34,4.2,245.63-106.34,249.52-233C749.88,263.92,636.76,154.11,504.29,154.94Z"/><path class="cls-2" d="M504.29,154.94c132.47-.83,245.59,109,241.27,249.38C741.67,531,636.38,641.49,496,637.29c-127.32-3.81-237-109.67-232.83-249.38C267.07,259.63,372.52,154.74,504.29,154.94Zm0,461c121,.57,215.87-97,219.41-212,3.92-127.35-97.44-232.77-231.39-227.31-111.22,4.53-203.38,96.85-206.94,212.18C281.31,520.18,385.4,616.35,504.29,615.92Z"/><path class="cls-3" d="M504.29,615.92c-118.89.43-223-95.74-218.92-227.13,3.56-115.33,95.72-207.65,206.94-212.18,134-5.46,235.31,100,231.39,227.31C720.16,519,625.31,616.49,504.29,615.92ZM656.36,436.2l2.41.63c-2.16,9.91-3.31,20.18-6.68,29.66-7,19.68-14.57,39.22-23.11,58.28-5,11.17-10.84,22.47-22.4,29-.69.39-1.07,1.32-1.6,2,.93,0,2.13.34,2.75-.1,4.93-3.56,10.33-6.71,14.48-11A152.54,152.54,0,0,0,657.59,485c5.4-16.68,12.9-32.75,13.54-50.71,0-.77,2-1.81,3.2-2.12,1.82-.47,5.36-.81,5.44-.51,1.61,6.33,5.48,13.65,3.66,19-6.55,19.33-15.23,37.93-22.73,57-6.16,15.65-13.08,30.77-24.84,43.15-2.5,2.63-4.91,5.35-8.36,9.12,2.41-.69,3.6-.68,4.27-1.27,4-3.57,8.65-6.76,11.8-11,12.76-17.24,25.9-34.28,37.31-52.4,15.72-24.95,24-52.65,25.58-82.22.32-6.15-3.37-9.13-9.21-7.46-7.55,2.16-15,4.73-22.48,7-4.26,1.3-5.06-.4-4.11-4.48,2.36-10.12,8.88-19.6,4.31-30.86-1.73-4.28-1.7-9.23-3.08-13.69-5.37-17.37-5.32-36.73-18.95-51.1-1.88-2-4.06-5.25-3.67-7.51a68.19,68.19,0,0,1,5.23-16.25c2.78-6.2,2-10.47-4.57-13.25-1.94-.81-3.46-2.59-5.35-3.6-9-4.84-17.38-11.55-28.79-9.48-20,3.65-40,7.3-60.12,10.4-5.13.8-9.18,1.2-10.06,7.41a31.4,31.4,0,0,1-3,8.72c-6.21,13.16-13,26.06-18.72,39.44-5.52,13-9.93,26.4-14.78,39.49-1.39-4.13-2.83-8.42-4.72-14l-4.6,13.86a72.89,72.89,0,0,1-3.41-6.7c-6.57-17-12.78-34.2-19.64-51.11-4.76-11.72-10.35-23.12-15.7-34.6a4.46,4.46,0,0,0-2.95-1.9c-16.41-3-32.82-6-49.29-8.63-8.21-1.28-17.34-4.12-24.67-1.82-11,3.46-20.88,10.78-31.18,16.56a2.58,2.58,0,0,0-.67,2.32c2.23,7.28,4.66,14.5,6.82,21.81a6,6,0,0,1-.56,4.29c-5.51,9.35-13.34,17.12-15.35,28.75-2.7,15.61-8.34,30.76-10.28,46.42-1,8.14,3.08,16.95,5.08,25.41.84,3.55,0,5.32-3.75,4.21-7-2.08-13.92-4.38-20.84-6.67s-11.66-.32-10.86,5.37c2.23,15.79,3.56,32.09,8.74,47A247,247,0,0,0,335.5,508c10,15.91,22.77,30.1,34.61,44.81,2.37,2.94,6,4.84,9.07,7.22.59-1.76.17-2.29-.31-2.76a117.16,117.16,0,0,1-27-39.56c-7.07-17.13-13.74-34.43-21-51.48-4.45-10.45-10.47-20.55-3.4-32,.78-1.27,3.29-2.75,4.33-2.35,2.13.81,4.91,2.51,5.44,4.4,1.4,4.92,1.16,10.31,2.6,15.22,2.8,9.6,6.06,19.08,9.56,28.45,4.05,10.86,7.11,22.48,13.22,32.09,8.67,13.64,19.54,25.93,29.94,38.39,2.48,3,6.84,4.36,10.33,6.47-18.13-15.11-26.63-36-34.89-56.57s-17-41-16.38-63.9a119.34,119.34,0,0,1,5.64,11.25c12.41,25.63,24.26,51.55,37.57,76.7,7.11,13.45,16.7,25.6,25.36,38.2.84,1.21,3.09,1.44,4.68,2.12a19.66,19.66,0,0,0-1.37-4.24c-5.75-9.7-12.73-18.85-17.18-29.11-9.1-21-16.84-42.51-25.19-63.8-3.41-8.67-7-17.28-10.81-26.76,5.24,1.61,9.44,3,13.69,4.16a3.71,3.71,0,0,0,2.86-.19c9.34-7.31,18.6-14.73,27.31-21.67L440,454.67c-3.58,3.26-7.69,6.5-11.13,10.33-2,2.22-4.28,5.49-4.1,8.13a156.72,156.72,0,0,0,3.57,23.78c3.65,16.08,6.75,32.44,16.46,46.39a16.76,16.76,0,0,0,2.41,2.35,12.78,12.78,0,0,0,.08-3.26c-1.33-5.78-3-11.49-4.15-17.3-2-10.2-4.58-20.4-5.34-30.71-.73-9.85-6.73-21.22,5.94-28.81,3.61-2.16,5.91-4.53,10.68-2.05,5.13,2.68,11,4.87,16.72,5.29,14.92,1.11,30,2,44.86,1.32a160.54,160.54,0,0,0,36.17-5.91c6.18-1.76,10.21-2.17,14.26,2.77,2,2.42,5.94,4.77,5.87,7a244.25,244.25,0,0,1-3,33c-2.07,12.22-5.45,24.22-8.21,36.32a6.76,6.76,0,0,0,.22,2.16c.52-.18,1.28-.19,1.53-.55,1.81-2.61,4-5.1,5.21-8,9-20.41,13.64-42,16-64,.2-1.87-.22-4.51-1.43-5.7-4.56-4.48-9.56-8.5-14.06-12.41L594,423.38c7.51,5.41,15.79,10.92,23.51,17.13,3.69,3,6.35,6.14,11.56,2.87,2.27-1.42,5.41-1.48,8.51-2.24-.67,2.22-1.1,4.23-1.87,6.1-6.12,14.76-13.17,29.21-18.27,44.32-8.16,24.2-17.12,47.86-32.4,68.64-.87,1.19-.86,3-1.27,4.55,1.68-.83,4-1.2,4.94-2.54,8.37-12.12,17.26-24,24.5-36.78,9-15.91,16.76-32.53,24.71-49C644.34,463.14,650.24,449.61,656.36,436.2Z"/><path class="cls-4" d="M656.36,436.2c-6.12,13.41-12,26.94-18.42,40.21-8,16.49-15.71,33.11-24.71,49-7.24,12.79-16.13,24.66-24.5,36.78-.92,1.34-3.26,1.71-4.94,2.54.41-1.53.4-3.36,1.27-4.55,15.28-20.78,24.24-44.44,32.4-68.64,5.1-15.11,12.15-29.56,18.27-44.32.77-1.87,1.2-3.88,1.87-6.1-3.1.76-6.24.82-8.51,2.24-5.21,3.27-7.87.1-11.56-2.87-7.72-6.21-16-11.72-23.51-17.13l-25.5,31.45c4.5,3.91,9.5,7.93,14.06,12.41,1.21,1.19,1.63,3.83,1.43,5.7-2.37,22.07-7,43.62-16,64-1.26,2.87-3.4,5.36-5.21,8-.25.36-1,.37-1.53.55a6.76,6.76,0,0,1-.22-2.16c2.76-12.1,6.14-24.1,8.21-36.32a244.25,244.25,0,0,0,3-33c.07-2.27-3.89-4.62-5.87-7-4-4.94-8.08-4.53-14.26-2.77A160.54,160.54,0,0,1,516,470.13c-14.91.7-29.94-.21-44.86-1.32-5.7-.42-11.59-2.61-16.72-5.29-4.77-2.48-7.07-.11-10.68,2.05-12.67,7.59-6.67,19-5.94,28.81.76,10.31,3.32,20.51,5.34,30.71,1.15,5.81,2.82,11.52,4.15,17.3a12.78,12.78,0,0,1-.08,3.26,16.76,16.76,0,0,1-2.41-2.35C435,529.35,431.94,513,428.29,496.91a156.72,156.72,0,0,1-3.57-23.78c-.18-2.64,2.1-5.91,4.1-8.13,3.44-3.83,7.55-7.07,11.13-10.33L414.23,423c-8.71,6.94-18,14.36-27.31,21.67a3.71,3.71,0,0,1-2.86.19c-4.25-1.2-8.45-2.55-13.69-4.16,3.84,9.48,7.4,18.09,10.81,26.76,8.35,21.29,16.09,42.84,25.19,63.8,4.45,10.26,11.43,19.41,17.18,29.11a19.66,19.66,0,0,1,1.37,4.24c-1.59-.68-3.84-.91-4.68-2.12-8.66-12.6-18.25-24.75-25.36-38.2-13.31-25.15-25.16-51.07-37.57-76.7a119.34,119.34,0,0,0-5.64-11.25c-.6,22.85,8.17,43.43,16.38,63.9s16.76,41.46,34.89,56.57c-3.49-2.11-7.85-3.5-10.33-6.47-10.4-12.46-21.27-24.75-29.94-38.39-6.11-9.61-9.17-21.23-13.22-32.09-3.5-9.37-6.76-18.85-9.56-28.45-1.44-4.91-1.2-10.3-2.6-15.22-.53-1.89-3.31-3.59-5.44-4.4-1-.4-3.55,1.08-4.33,2.35-7.07,11.49-1,21.59,3.4,32,7.25,17.05,13.92,34.35,21,51.48a117.16,117.16,0,0,0,27,39.56c.48.47.9,1,.31,2.76-3.06-2.38-6.7-4.28-9.07-7.22-11.84-14.71-24.6-28.9-34.61-44.81a247,247,0,0,1-24.25-49.68c-5.18-14.88-6.51-31.18-8.74-47-.8-5.69,4-7.63,10.86-5.37s13.85,4.59,20.84,6.67c3.76,1.11,4.59-.66,3.75-4.21-2-8.46-6.1-17.27-5.08-25.41,1.94-15.66,7.58-30.81,10.28-46.42,2-11.63,9.84-19.4,15.35-28.75a6,6,0,0,0,.56-4.29c-2.16-7.31-4.59-14.53-6.82-21.81a2.58,2.58,0,0,1,.67-2.32c10.3-5.78,20.14-13.1,31.18-16.56,7.33-2.3,16.46.54,24.67,1.82,16.47,2.59,32.88,5.66,49.29,8.63a4.46,4.46,0,0,1,2.95,1.9c5.35,11.48,10.94,22.88,15.7,34.6,6.86,16.91,13.07,34.08,19.64,51.11a72.89,72.89,0,0,0,3.41,6.7l4.6-13.86c1.89,5.58,3.33,9.87,4.72,14,4.85-13.09,9.26-26.53,14.78-39.49,5.69-13.38,12.51-26.28,18.72-39.44a31.4,31.4,0,0,0,3-8.72c.88-6.21,4.93-6.61,10.06-7.41,20.09-3.1,40.11-6.75,60.12-10.4,11.41-2.07,19.76,4.64,28.79,9.48,1.89,1,3.41,2.79,5.35,3.6,6.62,2.78,7.35,7.05,4.57,13.25a68.19,68.19,0,0,0-5.23,16.25c-.39,2.26,1.79,5.53,3.67,7.51,13.63,14.37,13.58,33.73,18.95,51.1,1.38,4.46,1.35,9.41,3.08,13.69,4.57,11.26-2,20.74-4.31,30.86-.95,4.08-.15,5.78,4.11,4.48,7.51-2.28,14.93-4.85,22.48-7,5.84-1.67,9.53,1.31,9.21,7.46-1.53,29.57-9.86,57.27-25.58,82.22-11.41,18.12-24.55,35.16-37.31,52.4-3.15,4.25-7.76,7.44-11.8,11-.67.59-1.86.58-4.27,1.27,3.45-3.77,5.86-6.49,8.36-9.12,11.76-12.38,18.68-27.5,24.84-43.15,7.5-19,16.18-37.62,22.73-57,1.82-5.36-2-12.68-3.66-19-.08-.3-3.62,0-5.44.51-1.22.31-3.17,1.35-3.2,2.12-.64,18-8.14,34-13.54,50.71a152.54,152.54,0,0,1-35.38,59.61c-4.15,4.33-9.55,7.48-14.48,11-.62.44-1.82.08-2.75.1.53-.68.91-1.61,1.6-2,11.56-6.49,17.39-17.79,22.4-29,8.54-19.06,16.1-38.6,23.11-58.28,3.37-9.48,4.52-19.75,6.68-29.66Zm-298.75,98,.16.12-.18-.09a.85.85,0,0,0-.06-.17s-.07,0-.11-.05ZM356,532l.33.22-.06-.49-.43-.54-.38-.62-.29.16c.13.25.26.5.38.75Zm25.14,1.74-.44.47.69.32Zm271.21-1.39,1.18-1.74a3.15,3.15,0,0,0,.77-.55c16.63-22.22,32.94-44.76,40.5-71.92,4.16-14.93,6.5-30.39,9.29-45.67.93-5-1.85-6.93-6.79-5.27-6.5,2.18-12.95,4.51-19.53,6.44-3.07.9-6.23.4-5,5.7.81,3.42-.77,7.4-1.26,11.05,3.75.54,7.35-5.28,10.76,1.44,5.51,10.87,3.63,20.49-1.1,31.09-9.91,22.2-18.78,44.86-28.07,67.34-.3.66-.59,1.32-.88,2l-.19.32ZM492.48,366.23h1l1.88,4.56c0-4.07.61-6.44-.1-8.33-6.6-17.68-13.18-35.37-20.29-52.85-4.6-11.33-10.05-22.31-15.23-33.4a3.64,3.64,0,0,0-2.42-1.51c-15.62-2.8-31.18-6-46.9-8.09-9.85-1.3-20.49-3-29.76-.58s-17.42,9.68-26,14.9a2.17,2.17,0,0,0-.5,1.94c3,9.22,6.12,18.42,9.19,27.62l13.46,40.25c0-2.16.06-2.61,0-3-2.23-14.42-3.63-29-6.92-43.21-3.83-16.46,3.92-22.68,15.23-22.05,19,1.06,38,3.4,56.85,5.81,3,.38,7.15-1,9.25,4.78,9.68,26.52,20.3,52.7,30.58,79l-.38.84-1.44,0V372c-.72-2.43-1.27-4.93-2.19-7.28-9.06-23.1-18.12-46.2-27.37-69.22-.78-2-2.71-4.63-4.36-4.84-19.71-2.42-39.44-4.62-59.21-6.49-12.13-1.14-17.41,4.8-15.41,17.61,2.43-1.38,4.46-3,6.78-3.7,2.58-.77,6.19-1.89,8-.74a219.33,219.33,0,0,1,18.69,14c7.68,6.13,15.2,12.47,22.87,18.8,4.47-11.76,10.48-13.93,16.95-5.37,8.15,10.78,14.6,22.83,22.38,33.9,3.23,4.59.81,13.83,10.46,13.38v.89l-.58,1.5h-.9l-1.64.49.44-2.06h-4.76c0,.58.06,1.2.15,2.85l-1.91-2.94c-4-.2-7.4-.53-10.81-.44-.87,0-1.71,1.37-2.56,2.1v0L453.1,373l-1.49.77.11-1.48-10.93-1-.61.85,2.11.45-.56.59h-4.16l.28-1.56L427.16,371l1.64-.77c-7.88-10.25-15.63-21-24.15-31.14-5.3-6.3-8.75-14.74-17.68-17.38-.87-.26-2.55-.16-2.8.31-.83,1.62-2.19,4.09-1.55,5.15,4.17,6.91,8.67,13.65,13.33,20.25,6.33,8.95,12.79,17.82,19.48,26.52,1.13,1.47,3.64,1.88,5.52,2.79l-4.87,7.33-1.28-.36c-1.17,2-2.19,3.82-3.22,5.6-2.52,1.61-6.15,4.3-5.79,6.29,2.93,16.51,12.43,29.62,22.45,42.67,12.4,16.15,27,28.33,47.89,29.82,15.7,1.12,31.55.82,47.31.41,18-.45,34.67-4.66,47.36-19.23,13.33-15.31,26.25-30.7,31.77-50.83,1.26-4.63-1.5-8.81-5.35-8.84-1.1-2.11-2-3.92-3.05-5.88-.53.15-1.23.34,0,0-5.65-4.67-10-9-15-12.12-2-1.25-5.63,0-8.52.18,0,.47.09.94.14,1.4h-4.11l2.62-2-11.61,1.22-3.73,2,0,0c-.94-.75-1.88-2.12-2.84-2.14-3.34-.09-6.69.29-10.53.53l-3,4,1.77-5.07L534,374.2l-.41.4-.84-.36-.86-.32-1-1V372c3.88.49,5.73-1.13,7.18-5,5.85-15.43,13.4-30,25.17-41.87,2.49-2.51,6.79-5.53,9.49-4.92,2.9.66,4.91,5.31,7.27,8.24a5.53,5.53,0,0,1,.55,1.55c.73-.49,1.41-.88,2-1.36,12.38-10,24.71-20.06,37.13-30,3.23-2.58,6.55-5,10.66-.86,1.73,1.73,4.37,2.55,6.89,3.94,1.32-10.47-4.1-18.75-11.79-18.08-19.39,1.68-38.76,3.77-58.1,6-2.74.31-6.88,1.5-7.71,3.43-8.11,18.78-15.77,37.74-23.28,56.77-2.86,7.25-5,14.8-7.42,22.21l0,.79-2.16,0a43.91,43.91,0,0,1,1.42-5.5q14.63-37.21,29.41-74.37c.58-1.47,2-3.52,3.28-3.66,21.44-2.55,42.88-5.27,64.41-6.82,4.13-.29,11.55,3.5,12.33,6.66,1.69,6.92.73,14.74-.29,22-1.76,12.59-4.4,25.05-6.67,37.57,1.61-.44,1.91-1.15,2.15-1.87q8.71-26.41,17.44-52.82c4.26-12.85,4.46-13.1-7-20.51-8.52-5.53-17.31-11.44-28.26-9.69-21.49,3.43-42.94,7.21-64.38,11-.93.16-2,1.51-2.37,2.54-1.58,4.08-2.67,8.36-4.39,12.37-9.6,22.39-19.45,44.68-28.89,67.14-1.54,3.65-1.48,8-2.16,12,1.63-.31,1.53-1,1.83-1.38,1.11-1.4,2.34-2.69,3.53-4a25.37,25.37,0,0,0,.73,3.73,4.26,4.26,0,0,0,1.57,2.06c2,1.29,4.2,2.39,6.31,3.56l-.45,1.06-.89.48-8-2.92c.19-2.14.38-4.28.64-7.12-2.51,1.27-3.06,15.48-6.63.44-.67,2.93-1.14,5-2,8.71-1.91-5.86-3.37-10.33-5.13-15.75-1.75,5.44-3.18,9.87-5,15.64l-1.83-7.6-3.44,5.67Zm115.94-36.76c-5.43,3.46-11.09,6.62-16.23,10.47s-12.1,6.54-10.51,15.19c.17.91-1,2.07-2.18,4.39v-9.29l-18.22,20.91c5.86-.66,12.66.62,15.12-2.07,11.44-12.48,21.67-26.06,32.33-39.25l.24-.4Zm-208.87-.38-.57-.17.36.37c8.67,11.36,17.44,22.64,26,34.09,5.56,7.46,13.06,8.09,21.14,6.83L429.1,350c-.13,1.78-.28,3.32-.35,4.86-.06,1,0,2.09,0,3.13-.69-1.22-1.73-2.37-2-3.67-.54-2.59.32-6.6-1.14-7.68C417.18,340.41,408.28,334.87,399.55,329.09Zm165.07,209.1a8.47,8.47,0,0,0,1.62-2.3c4.92-18.09,9.91-36.17,14.53-54.34,1-3.86,2.22-9.15.44-11.9-3.41-5.27-8.9-9.21-13.56-13.67a1.31,1.31,0,0,0-1.23-.13c-2.28,2.33-7.82,3.8-1.4,8.1,3.5,2.36,8.49,6.1,8.56,9.32a208.74,208.74,0,0,1-2.35,34.49c-1.48,10.2-4.49,20.17-6.83,30.25l-.11.71Zm-120.74,0,.32.53-.1-.71c-3-15.7-6.43-31.34-8.79-47.13-1.42-9.5-4.14-20.06,7.25-26.43,1.76-1,3.17-2.59,5.48-4.53-2.78-1.38-6.19-4.12-7.22-3.41a83.36,83.36,0,0,0-12.26,11,7.11,7.11,0,0,0-1.89,5.2c2.08,12.57,3.84,25.25,7,37.56C436.1,519.82,440.4,528.9,443.88,538.19ZM372.32,340.53c-.84,3-1.65,5.43-2.17,7.89-2.52,12.11-4.9,24.24-7.47,36.33-1.39,6.51-4.38,13-4.29,19.43.16,11.07,6.5,17.26,17.91,20.1,1.76.44,4.2,1.34,5.33.57,8.26-5.65,16.3-11.65,24.32-17.65a3,3,0,0,0,.67-2.69c-1.67-5.65-5.77-11.48,1.95-16.06.55-.33.37-1.87.53-2.84l1.25,1,3.74-5.22,2.83-1.42L380,328c-1,1.94-2.7,3.79-2.62,5.57.27,6.77,1.15,13.51,1.73,20.27a7,7,0,0,1-.6,2.21c-.71-.52-1.84-.91-2.06-1.59C375,350,373.8,345.57,372.32,340.53ZM598.83,386c1.66,2.07,3.34,3.66,4.36,5.59.81,1.53,1.68,4,1,5.18-3.15,5.46-2.36,10.45,2.51,13.58,4.08,2.62,8,5.46,12,8.26,5.15,3.63,9.65,9.18,17.15,4.64,3-1.81,7.93-2,9.33-4.49,2.69-4.7,5.38-10.75,4.69-15.77-1.7-12.38-5.46-24.47-8.14-36.73-1.81-8.3-3.2-16.7-5.13-26.89-1.8,6.36-3,10.79-4.36,15.16-.2.63-1.31,1-2,1.47-.33-.58-1-1.19-.94-1.73.32-3.32,1-6.62,1.17-9.93.21-5.34.06-10.69.06-16l-2.3-.06L591.73,380l3.82,1.61c.44,1.38,1.07,3.32,1.76,5.45ZM379.62,533.71l1-.75-.73-1.71c-7.83-18.53-16.07-36.9-23.37-55.63-7.57-19.43-10.19-39.51-4.49-60.07,4-14.36,8.25-28.65,11.83-43.11,2-8.25,2.83-16.8,4.39-25.18.59-3.16,3.08-6.52,2.44-9.25-1.73-7.28-4.69-14.26-7.47-22.27-1.4,4.11-2.84,7.39-3.62,10.81-4.15,18-8.11,36-12.17,54-1.93,8.54-3.85,17.07-5.93,25.57-1.1,4.51-3.79,9-3.58,13.38.46,9.62.92,19.63,3.85,28.68,7.05,21.7,15,43.15,23.7,64.27C368.62,520.17,374.81,526.66,379.62,533.71Zm249.2-.74a13.2,13.2,0,0,0,1.49-1.77c6.76-11.65,14.66-22.81,20-35.09,8.78-20.32,17.59-40.87,18.77-63.56.26-4.82,2.5-9.9,1.53-14.35-3.06-14.1-7.53-27.89-10.87-41.93s-5.84-28.18-8.93-42.23c-1.28-5.87-3.11-11.61-5.25-19.43-2.37,7.54-4.26,12.78-5.62,18.16a31.73,31.73,0,0,0-1,10.06c.25,3.27,1.74,6.43,2.51,9.68,4.22,18,8.72,35.87,12.45,53.94,2.61,12.65,7,25.88,5.48,38.22C657.17,462,651,479,645.22,495.62,640.83,508.35,634.43,520.38,628.82,533Zm-274.45-2.74.91-.65c-1.06-2.1-2.27-4.15-3.15-6.33Q340.7,495,329.39,466.64c-3.81-9.51-10.16-18.26-5.12-29.72,2.74-6.23,4.58-10.8,12.14-6.41.07,0,.27-.12-.06,0,0-5.16,0-10.08-.05-15,0-.35-.71-.84-1.17-1-8.44-2.64-16.83-5.48-25.4-7.61-1.41-.35-5.11,2.42-5.16,3.83a79.18,79.18,0,0,0,1.08,18.34c6.05,29.53,17.09,57,34.76,81.64Zm2.27-122.07c-3.79,10.47-7.23,20.16-.95,30.68,4.44,7.42,7.41,15.71,11.27,23.5,12.85,25.92,25.68,51.86,38.82,77.63,2.65,5.19,6.63,9.7,10.1,14.67C391.75,507.51,375.92,457.37,356.64,408.16Zm295.74-1.58C634,456.27,616.9,504.45,595.44,551.06a9.55,9.55,0,0,0,1.1-1.64c5.51-9.4,11.54-18.55,16.42-28.26,12.18-24.24,23.91-48.69,35.63-73.15,3.09-6.47,7-13.11,7.76-20C657.07,421.68,654.09,414.91,652.38,406.58Zm-226.09-62c.44-4.2.9-8.29,1.25-12.39,0-.35-.61-.83-1-1.16q-16.2-13-32.42-26c-11.72-9.35-11.4-9.83-16.27-3.16-4.6,6.29-5,21.23-.1,26.59,1.19-1.92,2.51-3.74,3.5-5.72,1.78-3.58,3.92-4.41,7.5-2.08,4.72,3.07,9.82,5.54,14.56,8.58C411,334.16,418.49,339.33,426.29,344.55Zm155.89-.11c10.29-6.69,20.49-13.33,30.7-19.94s10.34-6.69,17.3,2.89c.23.31.49.59,1,1.23.58-1,1.35-1.67,1.43-2.46,1-8.86,6.81-18.42-3.23-25.78-1.61-1.19-4.91-2.49-5.92-1.73-11.88,9-23.47,18.35-35.13,27.62-2.47,2-6.48,3.58-7,6C580.39,336.14,581.78,340.54,582.18,344.44Zm63.89-36.87c7.76,33.27,15.26,65.4,22.83,97.85,4.36-9.07,7.77-17.73,4.15-27.62-1.58-4.3-2-9-3-13.53C665.7,344.46,662.94,324,646.07,307.57ZM340,405.35c3.6-16.53,7.05-33.22,10.89-49.81,2.9-12.51,6.3-24.89,9.46-37.33.79-3.12,1.5-6.26,2.25-9.39l-2.49-.8c-4.58,8.05-10.4,15.66-13.45,24.24-4.19,11.81-6.27,24.36-9.29,36.59C334.35,381.24,331.29,393.61,340,405.35Zm249.36-28c2.22-2.1,5-4,6.86-6.64q15.57-21.93,30.58-44.25c.48-.72-1.36-3.16-2.36-4.65a2.21,2.21,0,0,0-2.1-.45c-3.74,2.81-8,5.24-10.93,8.78-10.91,13.25-21.37,26.87-31.38,39.58Zm5,44.13c7.89,5.63,16.17,10.69,23.35,17,4.25,3.73,7.6,5.13,12.6,2.52,2.68-1.4,6.95-1.57,8.14-3.64,2.46-4.32,3.35-9.53,5-14.67-2.89,1-5.48,2-8.16,2.74-4.53,1.21-8.51,2.76-13.16-1.6-6.38-6-14.16-10.48-21.31-15.6Zm-180.25.06-6.26-13.35c-7.61,5.5-14.85,11-22.4,16a12.7,12.7,0,0,1-7.78,1.92c-4.12-.42-8.12-1.95-12.88-3.2,4.43,6.08,1.21,16,12,17.94,5.37,1,9.15,2.3,14.05-2.37C397.71,432,406.17,427.22,414.12,421.57Zm55.31-50,.9-.38a48.65,48.65,0,0,0-2.84-6.66c-7.83-12.94-15.33-26.13-23.91-38.57-4.24-6.16-9.08-5.94-11.49-.68-2.22,4.86-3.14,10.31-4.64,15.5,4.13-9.21,9.19-11.35,15.77-3.88,7.79,8.84,13.45,19.57,19.92,29.55.72,1.11.67,2.69,1.12,4,.14.4.77.65,1.17,1,.62-1.22,1.23-2.45,2-4C468.14,368.92,468.79,370.25,469.43,371.58Zm111.68-30.64c-1.47-5.23-2.52-10.62-4.54-15.62-1.5-3.72-5-5.66-8.31-2-5.84,6.45-11.92,12.89-16.52,20.2-5.45,8.66-9.43,18.23-14,27.41,1.76.17,2.25-.39,2.62-1s.8-1.55,1.72-3.36c.21,2.11.3,3.08.4,4.05.77-.19,2.12-.23,2.22-.61a65.75,65.75,0,0,1,20.41-33.25C572.75,330,577.21,331.58,581.11,340.94Zm-117,30.35c-4.7-8.5-8.38-16.62-13.43-23.78-3.44-4.89-8.67-8.59-13.39-12.46-.81-.66-3.09.47-4.68.85a2.92,2.92,0,0,0,.3,1.48c3.34,4,6.77,8,10.13,12,5.81,7,11.58,14,18.17,21.9Zm113.79-36.76c-4.16.65-6.93.31-8.7,1.48-12.14,8.08-17.84,20.71-22.92,33.67-.13.34,1,1.15,1.49,1.74,1.1-1.59,2.08-3.28,3.31-4.76C559.48,356.58,567.89,346.55,577.94,334.53Zm-.88,3.85q-13.26,15.86-26.52,31.68l1.1,1.29,4.15-2.17c1.38.93,3.38,1.4,4.14.63a103.26,103.26,0,0,0,10.48-11.76C574.64,352.25,583,347.64,577.06,338.38Zm-145.47.11-2.21.5c.95,4,.89,8.66,3.08,11.77,4.51,6.4,10.12,12,15.52,17.78,1.12,1.19,3.25,1.43,4.92,2.1l.37-1.5,3.57,2.18,1.14-1.26Zm-60-33.7,1,.56,1.55-2.66-1.12-.62Zm264.61.63,1.09-.7-1.8-2.65-1,.68C635,303.64,635.57,304.53,636.15,305.42ZM592.71,552.86l.71.42,1.33-2.06-.76-.45Zm35.08-18.63-.27-.36a2.72,2.72,0,0,0-.43.4.8.8,0,0,0,.2.28A3.49,3.49,0,0,0,627.79,534.23Zm-244.87,2.33-.37-.25a1.75,1.75,0,0,0,0,.32s.11.13.14.12A1.11,1.11,0,0,0,382.92,536.56Zm-1.16-1.15.11.08v-.13Zm244.91-.08-.07.12h.11ZM359,535.94l-.14-.17c-.05.05-.14.1-.14.15s.08.11.12.16Zm233.18,18.34.15-.14-.27-.07s0,.1,0,.14S592.1,554.26,592.13,554.28Zm-175.31.22-.08.14.28,0a.52.52,0,0,0-.06-.15S416.87,554.5,416.82,554.5Z"/><path class="cls-5" d="M427.16,371l10.69.66-.28,1.56h4.16l.56-.59-2.11-.45.61-.85,10.93,1-.11,1.48,1.49-.77,1.95,1.37c-.13.83-.27,1.66-.4,2.5l2.23-2.14c.17,1.5.35,3,.27,2.31L455,374.4c.85-.73,1.69-2.07,2.56-2.1,3.41-.09,6.83.24,10.81.44l1.91,2.94c-.09-1.65-.12-2.27-.15-2.85h4.76l-.44,2.06,1.64-.49c.21.55.42,1.09,1.19,3.13-.19-2.13-.24-2.64-.29-3.14.19-.5.38-1,.58-1.5H480l1.44,0c.06.56.38,1.25.16,1.64-1.24,2.21-2.84,4.25-3.91,6.53-6.4,13.7-2.15,27,1,40.61,2.73,11.62,7.84,20.94,18.25,27.32,6.07,3.73,17.44.42,23.82-7.34,8.61-10.47,9.79-23.49,12.41-35.93,2.4-11.39,1.25-22.41-6.83-31.74l.45-1.06,0,0,2.16,0h1.92l1,1c-.14.7-.28,1.41-.41,2.11l.55.12.72-1.91.84.35.59,0-.18-.42,5.32-2.51-1.77,5.07,3-4c3.84-.24,7.19-.62,10.53-.53,1,0,1.9,1.39,2.84,2.14l-3.46,4.33.77.54,3-2.85c-.08-.49-.2-1.27-.32-2l3.73-2,11.61-1.22-2.62,2h4.11c0-.46-.09-.93-.14-1.4,2.89-.13,6.5-1.43,8.52-.18,5.06,3.15,9.4,7.45,15,12.12-1.24.34-.54.15,0,0,1,2,2,3.77,3.05,5.88,3.85,0,6.61,4.21,5.35,8.84-5.52,20.13-18.44,35.52-31.77,50.83-12.69,14.57-29.31,18.78-47.36,19.23-15.76.41-31.61.71-47.31-.41-20.86-1.49-35.49-13.67-47.89-29.82-10-13-19.52-26.16-22.45-42.67-.36-2,3.27-4.68,5.79-6.29,1-1.78,2.05-3.57,3.22-5.6l1.28.36,4.87-7.33v0l.53.11,4.85-4.86c0-.07.05-.14,0-.19a3.49,3.49,0,0,0-.15-.34h0l1-.49Zm-8.71,16.46,2,1.3.4-.72-2-1-1.43-2.37c-.26,1.9-.4,2.91-.63,4.63Zm131.75,1.84c-5.58,0-10.42,4.49-10.08,9.46.36,5.25,2.86,9.12,8.67,9.13,6.3,0,9.35-4,9.3-9.8C558,393.1,556.14,388.83,550.2,389.31Zm-89.86,0c-6.53,0-10,3.36-10.06,8.46-.08,5.79,3.85,10.28,9.2,10.16,5.84-.13,9-3.65,8.82-9.14S464.92,389.64,460.34,389.31Zm-38.82,6.82c.7,7.09,3.17,10.85,8.6,10.68,4.52-.15,8.74-2.06,9-7.68.2-4.27-5.67-10.36-9.78-9.15C426.1,390.94,423.59,394.41,421.52,396.13Zm168.46,3c-4.89-4.36-7.69-8.89-10.52-8.92-4.68,0-10,2.61-10,8.8,0,5.55,4.67,8.16,9.13,7.63C581.93,406.21,584.88,402.63,590,399.09ZM467.62,376.82c-.44,2.86-.72,4.63-1,6.39l.86.17.89-2.85,2.18,3.14.79-.7C470.31,381.27,469.28,379.56,467.62,376.82Zm101.57-.65-4.92,7.48,5.23-3.2C569.44,379.65,569.33,378.1,569.19,376.17Zm-124.71,7.21c-1.8-2.8-3.14-4.9-4.68-7.32-.16,2.08-.28,3.67-.33,4.36Zm96.15-2.32c.32.76.63,1.51.94,2.27l.65-.2c-.27-1.73-.54-3.47-.92-6-1.47,2.41-2.49,4.07-4.49,7.36C539,382.51,539.83,381.79,540.63,381.06Zm-88,4.79.63-.47c-1.1-1.4-2.21-2.79-3.32-4.19l-1.23,2Zm103-.45.67.53,3.79-2.93-.87-1.75Zm-143.61,8,6.24,2.16-5.2-4Zm184.84-.18c-.08-.12-.56-.92-1-1.71l-5.28,4.39Zm-30.17-2.53L561,395l6.27-2.1Zm-125,2.29,6.28,2.07-5.64-4.33C442,391.61,441.83,392.35,441.66,392.93ZM572,377.81l4.31-3.11-1.83-1.45Zm-112.31-2.32.13,1.24,4.05.29.07-1.18Zm97.38.69,4.26.62L559.53,374Zm31.19,12.34,3.63-.4c-.11-.66-.29-1.64-.57-3.23ZM447.29,377l6.68-1.48c-2.47-.87-3.62-1.7-4.33-1.43S448.28,375.73,447.29,377Zm-24,1.11c-.36,1.56-.58,2.54-.83,3.64l3.48-.5Zm11-3.36,1.11,2.36.82-.35c-.5-1.09-1-2.19-1.48-3.29a15.4,15.4,0,0,0-1.92,1.05c-.2.15-.13.66-.24,1.37Zm115.15,1.75c-.47-.58-1.1-1.67-1.33-1.59a35.41,35.41,0,0,0-4.68,2.47Zm33.21,4.89,3.64-.23c-.12-.78-.25-1.64-.47-3.1C584.54,379.36,583.76,380.17,582.58,381.42ZM432.39,383c-1.12-1.76-1.5-2.71-2.2-3.28-.28-.24-1.25.35-2.09.63Zm148.48-3c-1.29-.08-2.27-.43-2.64-.1-.56.5-.69,1.48-1.28,2.94Zm-110.15-.93,3.67-.29c-.92-1-1.37-1.44-1.83-1.91Zm67.43.11-1.67-2.32a12.24,12.24,0,0,0-1.09,1.07c-.11.13,0,.42,0,.69Z"/><path class="cls-6" d="M481.83,372c-10.28-26.3-20.9-52.48-30.58-79-2.1-5.76-6.29-4.4-9.25-4.78-18.9-2.41-37.85-4.75-56.85-5.81-11.31-.63-19.06,5.59-15.23,22.05,3.29,14.18,4.69,28.79,6.92,43.21.07.43,0,.88,0,3l-13.46-40.25c-3.07-9.2-6.17-18.4-9.19-27.62a2.17,2.17,0,0,1,.5-1.94c8.58-5.22,16.67-12.47,26-14.9s19.91-.72,29.76.58c15.72,2.07,31.28,5.29,46.9,8.09a3.64,3.64,0,0,1,2.42,1.51c5.18,11.09,10.63,22.07,15.23,33.4,7.11,17.48,13.69,35.17,20.29,52.85.71,1.89.1,4.26.1,8.33l-1.88-4.56-3-2.66c-.3.47-.89,1-.86,1.41C490.06,370.72,485.36,370.71,481.83,372Z"/><path class="cls-6" d="M526.81,372.92l0,0c-2.11-1.17-4.27-2.27-6.31-3.56a4.26,4.26,0,0,1-1.57-2.06,25.37,25.37,0,0,1-.73-3.73c-1.19,1.34-2.42,2.63-3.53,4-.3.38-.2,1.07-1.83,1.38.68-4,.62-8.34,2.16-12,9.44-22.46,19.29-44.75,28.89-67.14,1.72-4,2.81-8.29,4.39-12.37.4-1,1.44-2.38,2.37-2.54,21.44-3.77,42.89-7.55,64.38-11,11-1.75,19.74,4.16,28.26,9.69,11.43,7.41,11.23,7.66,7,20.51q-8.76,26.4-17.44,52.82c-.24.72-.54,1.43-2.15,1.87,2.27-12.52,4.91-25,6.67-37.57,1-7.29,2-15.11.29-22-.78-3.16-8.2-7-12.33-6.66-21.53,1.55-43,4.27-64.41,6.82-1.25.14-2.7,2.19-3.28,3.66q-14.83,37.14-29.41,74.37A43.91,43.91,0,0,0,526.81,372.92Z"/><path class="cls-3" d="M372.32,340.53c1.48,5,2.71,9.5,4.15,13.9.22.68,1.35,1.07,2.06,1.59a7,7,0,0,0,.6-2.21c-.58-6.76-1.46-13.5-1.73-20.27-.08-1.78,1.66-3.63,2.62-5.57l36.9,52-2.83,1.42-3.74,5.22-1.25-1c-.16,1,0,2.51-.53,2.84-7.72,4.58-3.62,10.41-1.95,16.06a3,3,0,0,1-.67,2.69c-8,6-16.06,12-24.32,17.65-1.13.77-3.57-.13-5.33-.57-11.41-2.84-17.75-9-17.91-20.1-.09-6.45,2.9-12.92,4.29-19.43,2.57-12.09,4.95-24.22,7.47-36.33C370.67,346,371.48,343.57,372.32,340.53Z"/><path class="cls-7" d="M598.83,386l-1.52,1.06c-.69-2.13-1.32-4.07-1.76-5.45L591.73,380l36.5-51.76,2.3.06c0,5.35.15,10.7-.06,16-.13,3.31-.85,6.61-1.17,9.93,0,.54.61,1.15.94,1.73.68-.49,1.79-.84,2-1.47,1.38-4.37,2.56-8.8,4.36-15.16,1.93,10.19,3.32,18.59,5.13,26.89,2.68,12.26,6.44,24.35,8.14,36.73.69,5-2,11.07-4.69,15.77-1.4,2.46-6.34,2.68-9.33,4.49-7.5,4.54-12-1-17.15-4.64-4-2.8-7.91-5.64-12-8.26-4.87-3.13-5.66-8.12-2.51-13.58.68-1.18-.19-3.65-1-5.18C602.17,389.68,600.49,388.09,598.83,386Z"/><path class="cls-7" d="M477.61,372c-9.65.45-7.23-8.79-10.46-13.38-7.78-11.07-14.23-23.12-22.38-33.9-6.47-8.56-12.48-6.39-16.95,5.37-7.67-6.33-15.19-12.67-22.87-18.8a219.33,219.33,0,0,0-18.69-14c-1.82-1.15-5.43,0-8,.74-2.32.69-4.35,2.32-6.78,3.7-2-12.81,3.28-18.75,15.41-17.61,19.77,1.87,39.5,4.07,59.21,6.49,1.65.21,3.58,2.89,4.36,4.84,9.25,23,18.31,46.12,27.37,69.22.92,2.35,1.47,4.85,2.19,7.28Z"/><path class="cls-7" d="M528.94,372.1c2.45-7.41,4.56-15,7.42-22.21,7.51-19,15.17-38,23.28-56.77.83-1.93,5-3.12,7.71-3.43,19.34-2.21,38.71-4.3,58.1-6,7.69-.67,13.11,7.61,11.79,18.08-2.52-1.39-5.16-2.21-6.89-3.94-4.11-4.1-7.43-1.72-10.66.86-12.42,9.94-24.75,20-37.13,30-.59.48-1.27.87-2,1.36a5.53,5.53,0,0,0-.55-1.55c-2.36-2.93-4.37-7.58-7.27-8.24-2.7-.61-7,2.41-9.49,4.92-11.77,11.85-19.32,26.44-25.17,41.87-1.45,3.83-3.3,5.45-7.18,5Z"/><path class="cls-8" d="M517.45,371.52l8,2.92c1.33,2.07,3.12,4,3.9,6.24,7.42,21.52,1.14,41.19-9.87,59.39-2.85,4.71-10.91,9.53-15.95,8.94-9.13-1.07-16.85-7.73-20-17a210.57,210.57,0,0,1-7.2-29c-2.82-15.24,2.14-27,12.55-32.46l3,1.44h0c3.24,1.84,6.47,3.71,9.73,5.52,1.09.6,2.62,1.81,3.33,1.47,4-1.93,7.75-4.25,11.59-6.44L517,372h0l.5-.49ZM504.16,436a22.39,22.39,0,0,0,17.28-9.31c1.21-1.66,2.82-4.59,2.16-5.82-6-11.25-23.72-14.45-33.27-6.07-2.52,2.22-6.44,6.91-5.75,8C489,430,495,435.66,504.16,436Zm14.78-54.53c-7.46,0-10.71,3.2-10.68,9.45s4.39,10.12,10.71,10c5.64-.11,9.89-4.9,9.46-11.27S523.1,381.85,518.94,381.48Zm-28.16,19.44c6,0,9.94-4,10-10.13s-3.41-9.29-9.39-9.27c-5.62,0-10.53,1.67-10.82,8.49A10.27,10.27,0,0,0,490.78,400.92Z"/><path class="cls-9" d="M379.62,533.71c-4.81-7.05-11-13.54-14.17-21.26-8.67-21.12-16.65-42.57-23.7-64.27-2.93-9.05-3.39-19.06-3.85-28.68-.21-4.39,2.48-8.87,3.58-13.38,2.08-8.5,4-17,5.93-25.57,4.06-18,8-36,12.17-54,.78-3.42,2.22-6.7,3.62-10.81,2.78,8,5.74,15,7.47,22.27.64,2.73-1.85,6.09-2.44,9.25-1.56,8.38-2.35,16.93-4.39,25.18C360.26,386.9,356,401.19,352,415.55c-5.7,20.56-3.08,40.64,4.49,60.07,7.3,18.73,15.54,37.1,23.37,55.63l.73,1.71Z"/><path class="cls-9" d="M628.82,533c5.61-12.59,12-24.62,16.4-37.35C651,479,657.17,462,659.3,444.67c1.52-12.34-2.87-25.57-5.48-38.22-3.73-18.07-8.23-36-12.45-53.94-.77-3.25-2.26-6.41-2.51-9.68a31.73,31.73,0,0,1,1-10.06c1.36-5.38,3.25-10.62,5.62-18.16,2.14,7.82,4,13.56,5.25,19.43,3.09,14,5.61,28.23,8.93,42.23s7.81,27.83,10.87,41.93c1,4.45-1.27,9.53-1.53,14.35-1.18,22.69-10,43.24-18.77,63.56-5.3,12.28-13.2,23.44-20,35.09A13.2,13.2,0,0,1,628.82,533Z"/><path class="cls-5" d="M354.37,530.23l-14-19.47c-17.67-24.62-28.71-52.11-34.76-81.64a79.18,79.18,0,0,1-1.08-18.34c.05-1.41,3.75-4.18,5.16-3.83,8.57,2.13,17,5,25.4,7.61.46.15,1.16.64,1.17,1,.07,4.92.05,9.84.05,15,.33-.16.13,0,.06,0-7.56-4.39-9.4.18-12.14,6.41-5,11.46,1.31,20.21,5.12,29.72q11.34,28.32,22.74,56.61c.88,2.18,2.09,4.23,3.15,6.33Z"/><path class="cls-5" d="M653.14,530.26c9.29-22.48,18.16-45.14,28.07-67.34,4.73-10.6,6.61-20.22,1.1-31.09-3.41-6.72-7-.9-10.76-1.44.49-3.65,2.07-7.63,1.26-11.05-1.26-5.3,1.9-4.8,5-5.7,6.58-1.93,13-4.26,19.53-6.44,4.94-1.66,7.72.23,6.79,5.27-2.79,15.28-5.13,30.74-9.29,45.67-7.56,27.16-23.87,49.7-40.5,71.92a3.15,3.15,0,0,1-.77.55Z"/><path class="cls-10" d="M356.64,408.16c19.28,49.21,35.11,99.35,59.24,146.48-3.47-5-7.45-9.48-10.1-14.67-13.14-25.77-26-51.71-38.82-77.63-3.86-7.79-6.83-16.08-11.27-23.5C349.41,428.32,352.85,418.63,356.64,408.16Z"/><path class="cls-10" d="M652.38,406.58c1.71,8.33,4.69,15.1,4,21.46-.77,6.86-4.67,13.5-7.76,20-11.72,24.46-23.45,48.91-35.63,73.15-4.88,9.71-10.91,18.86-16.42,28.26a9.55,9.55,0,0,1-1.1,1.64C616.9,504.45,634,456.27,652.38,406.58Z"/><path class="cls-11" d="M426.29,344.55c-7.8-5.22-15.32-10.39-23-15.32-4.74-3-9.84-5.51-14.56-8.58-3.58-2.33-5.72-1.5-7.5,2.08-1,2-2.31,3.8-3.5,5.72-4.92-5.36-4.5-20.3.1-26.59,4.87-6.67,4.55-6.19,16.27,3.16q16.25,12.94,32.42,26c.41.33,1.05.81,1,1.16C427.19,336.26,426.73,340.35,426.29,344.55Z"/><path class="cls-11" d="M582.18,344.44c-.4-3.9-1.79-8.3-.89-12.17.56-2.42,4.57-4,7-6,11.66-9.27,23.25-18.64,35.13-27.62,1-.76,4.31.54,5.92,1.73,10,7.36,4.23,16.92,3.23,25.78-.08.79-.85,1.5-1.43,2.46-.51-.64-.77-.92-1-1.23-7-9.58-7-9.59-17.3-2.89S592.47,337.75,582.18,344.44Z"/><path class="cls-12" d="M646.07,307.57c16.87,16.45,19.63,36.89,24,56.7,1,4.51,1.41,9.23,3,13.53,3.62,9.89.21,18.55-4.15,27.62C661.33,373,653.83,340.84,646.07,307.57Z"/><path class="cls-12" d="M340,405.35c-8.74-11.74-5.68-24.11-2.63-36.5,3-12.23,5.1-24.78,9.29-36.59,3.05-8.58,8.87-16.19,13.45-24.24l2.49.8c-.75,3.13-1.46,6.27-2.25,9.39-3.16,12.44-6.56,24.82-9.46,37.33C347.08,372.13,343.63,388.82,340,405.35Z"/><path class="cls-6" d="M421,376.74c-1.88-.91-4.39-1.32-5.52-2.79-6.69-8.7-13.15-17.57-19.48-26.52-4.66-6.6-9.16-13.34-13.33-20.25-.64-1.06.72-3.53,1.55-5.15.25-.47,1.93-.57,2.8-.31,8.93,2.64,12.38,11.08,17.68,17.38,8.52,10.12,16.27,20.89,24.15,31.14l-1.64.77h0l-1,.49h0l-.45,0-4.81,4.8v.43Z"/><path class="cls-6" d="M589.39,377.38l-9.33-7.63c10-12.71,20.47-26.33,31.38-39.58,2.91-3.54,7.19-6,10.93-8.78a2.21,2.21,0,0,1,2.1.45c1,1.49,2.84,3.93,2.36,4.65q-15,22.32-30.58,44.25C594.4,373.35,591.61,375.28,589.39,377.38Z"/><path class="cls-5" d="M594.37,421.51l6.44-13.25c7.15,5.12,14.93,9.62,21.31,15.6,4.65,4.36,8.63,2.81,13.16,1.6,2.68-.71,5.27-1.75,8.16-2.74-1.63,5.14-2.52,10.35-5,14.67-1.19,2.07-5.46,2.24-8.14,3.64-5,2.61-8.35,1.21-12.6-2.52C610.54,432.2,602.26,427.14,594.37,421.51Z"/><path class="cls-5" d="M414.12,421.57c-7.95,5.65-16.41,10.45-23.25,16.95-4.9,4.67-8.68,3.35-14.05,2.37-10.81-2-7.59-11.86-12-17.94,4.76,1.25,8.76,2.78,12.88,3.2a12.7,12.7,0,0,0,7.78-1.92c7.55-5,14.79-10.51,22.4-16Z"/><path class="cls-13" d="M443.88,538.19c-3.48-9.29-7.78-18.37-10.23-27.92-3.14-12.31-4.9-25-7-37.56a7.11,7.11,0,0,1,1.89-5.2,83.36,83.36,0,0,1,12.26-11c1-.71,4.44,2,7.22,3.41-2.31,1.94-3.72,3.55-5.48,4.53-11.39,6.37-8.67,16.93-7.25,26.43,2.36,15.79,5.8,31.43,8.79,47.13Z"/><path class="cls-13" d="M564.4,538c2.34-10.08,5.35-20,6.83-30.25a208.74,208.74,0,0,0,2.35-34.49c-.07-3.22-5.06-7-8.56-9.32-6.42-4.3-.88-5.77,1.4-8.1a1.31,1.31,0,0,1,1.23.13c4.66,4.46,10.15,8.4,13.56,13.67,1.78,2.75.54,8-.44,11.9-4.62,18.17-9.61,36.25-14.53,54.34a8.47,8.47,0,0,1-1.62,2.3Z"/><path class="cls-14" d="M399.55,329.09c8.73,5.78,17.63,11.32,26,17.55,1.46,1.08.6,5.09,1.14,7.68.28,1.3,1.32,2.45,2,3.67,0-1,0-2.09,0-3.13.07-1.54.22-3.08.35-4.86l17.35,20.21c-8.08,1.26-15.58.63-21.14-6.83-8.53-11.45-17.3-22.73-26-34.09Z"/><path class="cls-14" d="M608.73,329.82c-10.66,13.19-20.89,26.77-32.33,39.25-2.46,2.69-9.26,1.41-15.12,2.07l18.22-20.91v9.29c1.19-2.32,2.35-3.48,2.18-4.39-1.59-8.65,5.45-11.39,10.51-15.19s10.8-7,16.23-10.47A2.59,2.59,0,0,0,608.73,329.82Z"/><path class="cls-15" d="M469.43,371.58c-.64-1.33-1.29-2.66-2-4.15-.77,1.55-1.38,2.78-2,4-.4-.31-1-.56-1.17-1-.45-1.32-.4-2.9-1.12-4-6.47-10-12.13-20.71-19.92-29.55-6.58-7.47-11.64-5.33-15.77,3.88,1.5-5.19,2.42-10.64,4.64-15.5,2.41-5.26,7.25-5.48,11.49.68,8.58,12.44,16.08,25.63,23.91,38.57a48.65,48.65,0,0,1,2.84,6.66Z"/><path class="cls-15" d="M581.11,340.94c-3.9-9.36-8.36-10.95-16.05-4.19A65.75,65.75,0,0,0,544.65,370c-.1.38-1.45.42-2.22.61-.1-1-.19-1.94-.4-4.05-.92,1.81-1.27,2.61-1.72,3.36s-.86,1.18-2.62,1c4.62-9.18,8.6-18.75,14-27.41,4.6-7.31,10.68-13.75,16.52-20.2,3.32-3.66,6.81-1.72,8.31,2C578.59,330.32,579.64,335.71,581.11,340.94Z"/><path class="cls-16" d="M492,372l-3-1.44C478.55,376,473.59,387.78,476.41,403a210.57,210.57,0,0,0,7.2,29c3.12,9.3,10.84,16,20,17,5,.59,13.1-4.23,15.95-8.94,11-18.2,17.29-37.87,9.87-59.39-.78-2.26-2.57-4.17-3.9-6.24l.89-.48c8.08,9.33,9.23,20.35,6.83,31.74-2.62,12.44-3.8,25.46-12.41,35.93-6.38,7.76-17.75,11.07-23.82,7.34-10.41-6.38-15.52-15.7-18.25-27.32-3.19-13.58-7.44-26.91-1-40.61,1.07-2.28,2.67-4.32,3.91-6.53.22-.39-.1-1.08-.16-1.64.12-.28.25-.56.38-.84,3.53-1.32,8.23-1.31,7.82-7,0-.45.56-.94.86-1.41l3,2.66h-1l-1-1.77-1,.68Z"/><path class="cls-17" d="M464.15,371.29h-2.9c-6.59-7.94-12.36-14.94-18.17-21.9-3.36-4-6.79-8-10.13-12a2.92,2.92,0,0,1-.3-1.48c1.59-.38,3.87-1.51,4.68-.85,4.72,3.87,9.95,7.57,13.39,12.46C455.77,354.67,459.45,362.79,464.15,371.29Z"/><path class="cls-14" d="M577.94,334.53c-10.05,12-18.46,22.05-26.82,32.13-1.23,1.48-2.21,3.17-3.31,4.76-.52-.59-1.62-1.4-1.49-1.74,5.08-13,10.78-25.59,22.92-33.67C571,334.84,573.78,335.18,577.94,334.53Z"/><path class="cls-18" d="M577.06,338.38c6,9.26-2.42,13.87-6.65,19.67a103.26,103.26,0,0,1-10.48,11.76c-.76.77-2.76.3-4.14-.63l-4.15,2.17-1.1-1.29Q563.8,354.22,577.06,338.38Z"/><path class="cls-18" d="M431.59,338.49,458,370.06l-1.14,1.26-3.57-2.18-.37,1.5c-1.67-.67-3.8-.91-4.92-2.1-5.4-5.74-11-11.38-15.52-17.78-2.19-3.11-2.13-7.8-3.08-11.77Z"/><path class="cls-19" d="M492,372l-1.53-6.86,1-.68,1,1.77q.78,2.64,1.58,5.28l3.44-5.67,1.83,7.6c1.85-5.77,3.28-10.2,5-15.64,1.76,5.42,3.22,9.89,5.13,15.75.83-3.68,1.3-5.78,2-8.71,3.57,15,4.12.83,6.63-.44-.26,2.84-.45,5-.64,7.12h0l-.5.49h0l-1,.05c-7,4-14,7.16-21.39.9A8.24,8.24,0,0,0,492,372Z"/><path class="cls-11" d="M371.54,304.79l1.45-2.72,1.12.62-1.55,2.66Z"/><path class="cls-11" d="M636.15,305.42c-.58-.89-1.15-1.78-1.72-2.67l1-.68,1.8,2.65Z"/><path class="cls-16" d="M532.74,374.24l-.72,1.91-.55-.12c.13-.7.27-1.41.41-2.11Z"/><path class="cls-10" d="M592.71,552.86l1.28-2.09.76.45-1.33,2.06Z"/><path class="cls-16" d="M477.61,372l2.4,0v.91h-2.4Z"/><path class="cls-16" d="M528.94,372.1l2-.07v.86H529Z"/><path class="cls-16" d="M477,374.39c.05.5.1,1,.29,3.14-.77-2-1-2.58-1.19-3.13Z"/><path class="cls-5" d="M652.25,532.24l.89-2,.4.35-1.18,1.74Z"/><path class="cls-13" d="M627.79,534.23a3.49,3.49,0,0,1-.5.32.8.8,0,0,1-.2-.28,2.72,2.72,0,0,1,.43-.4Z"/><path class="cls-13" d="M382.92,536.56a1.11,1.11,0,0,1-.27.19s-.14-.07-.14-.12a1.75,1.75,0,0,1,0-.32Z"/><path class="cls-13" d="M381.15,533.74l.25.79-.69-.32C380.86,534.05,381,533.89,381.15,533.74Z"/><path class="cls-5" d="M355.56,531.48l-.38-.75.29-.16c.12.21.25.42.38.63Z"/><path class="cls-13" d="M444.1,538l.1.71c-.1-.18-.21-.36-.32-.53Z"/><path class="cls-13" d="M564.62,538.19l-.33.53c0-.24.08-.48.11-.71Z"/><path class="cls-14" d="M608.42,329.47l.55-.05-.24.4A2.59,2.59,0,0,1,608.42,329.47Z"/><path class="cls-14" d="M399.34,329.29l-.36-.37.57.17Z"/><path class="cls-5" d="M356,532l-.45-.52.29-.28.43.53Z"/><path class="cls-5" d="M356.28,531.73l.06.49L356,532Z"/><path class="cls-5" d="M652.36,532.35l-.29.22c.06-.11.12-.22.19-.33Z"/><path class="cls-13" d="M357.61,534.22l-.19-.19s.1,0,.11.05a.85.85,0,0,1,.06.17Z"/><path class="cls-9" d="M381.15,533.74l-.44.47C380.86,534.05,381,533.89,381.15,533.74Z"/><path class="cls-13" d="M357.59,534.25l.18.09-.16-.12Z"/><polygon class="cls-13" points="381.76 535.41 381.88 535.36 381.87 535.49 381.76 535.41"/><polygon class="cls-13" points="626.67 535.33 626.71 535.46 626.6 535.45 626.67 535.33"/><path class="cls-13" d="M359,535.94l-.16.14c0-.05-.12-.11-.12-.16s.09-.1.14-.15Z"/><path class="cls-10" d="M592.14,554.28s-.1,0-.12-.07,0-.1,0-.14l.27.07Z"/><path class="cls-10" d="M416.82,554.5c.05,0,.11,0,.14,0a.52.52,0,0,1,.06.15l-.28,0Z"/><path class="cls-20" d="M550.2,389.31c5.94-.48,7.84,3.79,7.89,8.79,0,5.8-3,9.81-9.3,9.8-5.81,0-8.31-3.88-8.67-9.13C539.78,393.8,544.62,389.29,550.2,389.31Z"/><path class="cls-20" d="M460.34,389.31c4.58.33,7.76,4,8,9.48s-3,9-8.82,9.14c-5.35.12-9.28-4.37-9.2-10.16C450.36,392.67,453.81,389.3,460.34,389.31Z"/><path class="cls-20" d="M421.52,396.13c2.07-1.72,4.58-5.19,7.83-6.15,4.11-1.21,10,4.88,9.78,9.15-.27,5.62-4.49,7.53-9,7.68C424.69,407,422.22,403.22,421.52,396.13Z"/><path class="cls-20" d="M590,399.09c-5.1,3.54-8.05,7.12-11.37,7.51-4.46.53-9.1-2.08-9.13-7.63,0-6.19,5.3-8.84,10-8.8C582.29,390.2,585.09,394.73,590,399.09Z"/><path class="cls-16" d="M467.62,376.82c1.66,2.74,2.69,4.45,3.73,6.15l-.79.7-2.18-3.14-.89,2.85-.86-.17C466.9,381.45,467.18,379.68,467.62,376.82Z"/><path class="cls-16" d="M569.19,376.17c.14,1.93.25,3.48.31,4.28l-5.23,3.2Z"/><path class="cls-4" d="M444.48,383.38l-5-3c0-.69.17-2.28.33-4.36C441.34,378.48,442.68,380.58,444.48,383.38Z"/><path class="cls-4" d="M540.64,381.06l-3.83,3.43c2-3.29,3-4.95,4.49-7.36.38,2.53.65,4.27.92,6l-.65.2Z"/><path class="cls-16" d="M452.64,385.85l-3.92-2.69,1.23-2c1.11,1.4,2.22,2.79,3.32,4.19Z"/><path class="cls-4" d="M555.65,385.4l3.59-4.15.87,1.75-3.79,2.93Z"/><path class="cls-16" d="M412,393.35l1-1.88,5.2,4Z"/><path class="cls-16" d="M596.88,393.17l-6.32,2.68,5.28-4.39C596.32,392.25,596.8,393.05,596.88,393.17Z"/><path class="cls-4" d="M553.92,374.38c.12.77.24,1.55.32,2l-3,2.85-.77-.54,3.46-4.33Z"/><path class="cls-16" d="M566.71,390.64l.57,2.3L561,395Z"/><path class="cls-4" d="M441.66,392.93c.17-.58.38-1.32.64-2.26l5.64,4.33Z"/><path class="cls-4" d="M455,374.4l2.11,2.65c.08.68-.1-.81-.27-2.31l-2.23,2.14c.13-.84.27-1.67.4-2.5Z"/><path class="cls-16" d="M572,377.81l2.48-4.56,1.83,1.45Z"/><path class="cls-16" d="M459.73,375.49l4.25.35-.07,1.18-4.05-.29Z"/><path class="cls-16" d="M557.11,376.18l2.42-2.17,1.84,2.79Z"/><path class="cls-16" d="M588.3,388.52l3.06-3.63c.28,1.59.46,2.57.57,3.23Z"/><path class="cls-4" d="M447.29,377c1-1.3,1.49-2.57,2.35-2.91s1.86.56,4.33,1.43Z"/><path class="cls-16" d="M421,376.31l4.81-4.8.56.51-4.85,4.86Z"/><path class="cls-16" d="M423.27,378.14l2.65,3.14-3.48.5C422.69,380.68,422.91,379.7,423.27,378.14Z"/><path class="cls-4" d="M434.22,374.78l-1.71,1.14c.11-.71,0-1.22.24-1.37a15.4,15.4,0,0,1,1.92-1.05c.49,1.1,1,2.2,1.48,3.29l-.82.35Z"/><path class="cls-4" d="M549.37,376.53l-6,.88a35.41,35.41,0,0,1,4.68-2.47C548.27,374.86,548.9,376,549.37,376.53Z"/><path class="cls-16" d="M582.58,381.42c1.18-1.25,2-2.06,3.17-3.33.22,1.46.35,2.32.47,3.1Z"/><path class="cls-16" d="M432.39,383l-4.29-2.65c.84-.28,1.81-.87,2.09-.63C430.89,380.31,431.27,381.26,432.39,383Z"/><path class="cls-16" d="M580.87,380,577,382.86c.59-1.46.72-2.44,1.28-2.94C578.6,379.59,579.58,379.94,580.87,380Z"/><path class="cls-4" d="M470.72,379.09l1.84-2.2c.46.47.91.95,1.83,1.91Z"/><path class="cls-4" d="M418.44,387.47l-1.68,1.88c.23-1.72.37-2.73.63-4.63l1.43,2.37Z"/><path class="cls-16" d="M538.15,379.2l-2.78-.56c0-.27-.09-.56,0-.69a12.24,12.24,0,0,1,1.09-1.07Z"/><path class="cls-4" d="M418.82,387.09l2,1-.4.72-2-1.3Z"/><path class="cls-4" d="M426.23,371.49l1-.49Z"/><path class="cls-4" d="M426.33,372l-.56-.51.45,0a3.49,3.49,0,0,1,.15.34C426.38,371.88,426.34,372,426.33,372Z"/><path class="cls-4" d="M534,374.2l.18.42-.59,0Z"/><path class="cls-4" d="M421,376.31l.52.57-.53-.11Z"/><path class="cls-21" d="M504.16,436c-9.19-.35-15.21-6-19.58-13.16-.69-1.13,3.23-5.82,5.75-8,9.55-8.38,27.23-5.18,33.27,6.07.66,1.23-1,4.16-2.16,5.82A22.39,22.39,0,0,1,504.16,436Zm14-8.56,1-1.7-.76-.38-.51,1.81-.31.25Zm-10.32-12.66,4.89,1.71-2.12,2,4.8-5H493.91l3.88,4.19,3.34-2.83v.77c-.92,3-1.85,6-2.73,8.86L494.92,415c-.64,3.44-.92,5-1.37,7.42l-2.19-4.87c-.27,2-.42,3.09-.63,4.67l-2.05-2.89c-.41,2.63-.69,4.4-1,6.16l1.21.14c.22-.9.45-1.8.88-3.51l3.18,6.08,2.3,1.47,2-1.51,1.14,3.63.79-.17-.71-5.88,5.95,8.47,5.69-8.23c-.1,2-.2,3.84-.29,5.71l.79.09,1.33-4.3,1.27,3.07c.67-1.85,1.22-3.35,2-5.52.47,1.41.7,2.09,1,2.88l3-5.86.87,3.51,1.13-.18c-.28-1.76-.55-3.51-1-6l-2.17,2.77c-.31-1.47-.54-2.57-.92-4.35-.73,1.61-1.21,2.65-2.11,4.64-.34-2.53-.55-4.08-1.07-8l-3.76,10.43c-.84-3.27-1.61-6.27-2.39-9.28Zm-17.2,10.77-1,.21c.37.76.75,1.52,1.12,2.29l.64-.3C491.19,427,490.92,426.29,490.65,425.56Zm2-7.94.52-.39a7.54,7.54,0,0,0-.72-1.11c0-.05-.48.24-.74.37Zm22.79-.26.53.38.9-1.3c-.2-.12-.55-.37-.56-.35C516,416.5,515.73,416.93,515.45,417.36ZM487,420.61c-.18.28-.38.44-.38.61s.18.35.28.52c.13-.17.32-.33.36-.52S487.12,420.88,487,420.61Zm.6-.31-.16-.3c-.05.05-.15.11-.14.15a1.48,1.48,0,0,0,.14.32Z"/><path class="cls-20" d="M518.94,381.48c4.16.37,9,1.65,9.49,8.17s-3.82,11.16-9.46,11.27c-6.32.13-10.68-3.84-10.71-10S511.48,381.51,518.94,381.48Z"/><path class="cls-20" d="M490.78,400.92A10.27,10.27,0,0,1,480.54,390c.29-6.82,5.2-8.46,10.82-8.49,6,0,9.43,3,9.39,9.27S496.76,401,490.78,400.92Z"/><path class="cls-16" d="M492,372a8.24,8.24,0,0,1,2.65.94c7.43,6.26,14.42,3.1,21.39-.9l.61.51c-3.84,2.19-7.62,4.51-11.59,6.44-.71.34-2.24-.87-3.33-1.47C498.46,375.71,495.23,373.84,492,372Z"/><path class="cls-4" d="M516.64,372.55,516,372l1-.05Z"/><path class="cls-4" d="M517,372l.5-.49Z"/><path class="cls-22" d="M493,428.16l-3.18-6.08c-.43,1.71-.66,2.61-.88,3.51l-1.21-.14c.28-1.76.56-3.53,1-6.16l2.05,2.89c.21-1.58.36-2.68.63-4.67l2.19,4.87c.45-2.46.73-4,1.37-7.42l3.49,9.53c.88-2.87,1.81-5.87,2.73-8.86l1.44,2.63c.71-1.07,1.18-1.78,1.79-2.68.59.94,1,1.63,1.67,2.65l1.79-2.67c.78,3,1.55,6,2.39,9.28L514,414.41c.52,3.88.73,5.43,1.07,8,.9-2,1.38-3,2.11-4.64.38,1.78.61,2.88.92,4.35l2.17-2.77c.4,2.52.67,4.27,1,6l-1.13.18L519.2,422l-3,5.86c-.27-.79-.5-1.47-1-2.88-.8,2.17-1.35,3.67-2,5.52L512,427.44l-1.33,4.3-.79-.09c.09-1.87.19-3.74.29-5.71l-5.69,8.23-5.95-8.47.71,5.88-.79.17-1.14-3.63-2,1.51c-.4-1.42-.81-2.84-1.82-6.39C493.15,426.38,493.07,427.27,493,428.16Z"/><path class="cls-23" d="M501.13,414.86l-3.34,2.83-3.88-4.19h21.51l-4.8,5,2.12-2-4.89-1.71Z"/><path class="cls-16" d="M501.13,414.86l6.72-.07,0,.77L506,418.23c-.65-1-1.08-1.71-1.67-2.65-.61.9-1.08,1.61-1.79,2.68l-1.44-2.63Z"/><path class="cls-16" d="M493,428.16c.09-.89.17-1.78.48-4.92,1,3.55,1.42,5,1.82,6.39Z"/><path class="cls-23" d="M490.65,425.56c.27.73.54,1.47.8,2.2l-.64.3c-.37-.77-.75-1.53-1.12-2.29Z"/><path class="cls-23" d="M492.66,417.62l-.94-1.13c.26-.13.7-.42.74-.37a7.54,7.54,0,0,1,.72,1.11Z"/><path class="cls-23" d="M515.45,417.36c.28-.43.56-.86.87-1.27,0,0,.36.23.56.35l-.9,1.3Z"/><path class="cls-23" d="M517.91,427.18l.51-1.81.76.38-1,1.7A1.66,1.66,0,0,0,517.91,427.18Z"/><path class="cls-23" d="M487,420.61c.13.27.29.46.26.61s-.23.35-.36.52c-.1-.17-.29-.35-.28-.52S486.81,420.89,487,420.61Z"/><path class="cls-23" d="M518.17,427.45l-.57,0,.31-.25A1.66,1.66,0,0,1,518.17,427.45Z"/><path class="cls-23" d="M487.59,420.31l-.16.16a1.48,1.48,0,0,1-.14-.32s.09-.1.14-.15C487.48,420.1,487.54,420.2,487.59,420.31Z"/></svg>